<?xml version="1.0" encoding="UTF-8"?>
<!-- Uploaded to: SVG Find, www.svgrepo.com, Generator: SVG Find Mixer Tools -->
<svg fill="#ffff" width="800px" height="800px" version="1.1" viewBox="144 144 512 512" xmlns="http://www.w3.org/2000/svg">
 <path d="m295.05 379h159.39l-69.301-69.004c-8.2344-8.2266-8.2344-21.562 0-29.785 8.2344-8.2266 21.586-8.2266 29.82 0l105 104.88c1.9141 1.9922 3.4102 4.3438 4.4102 6.9219 2.1016 5.1055 2.1016 10.832 0 15.938-1 2.5781-2.4961 4.9297-4.4102 6.9219l-105 104.88c-3.9414 3.9727-9.3086 6.2031-14.91 6.2031-5.5977 0-10.969-2.2305-14.91-6.2031-3.9766-3.9375-6.2109-9.3008-6.2109-14.891 0-5.5938 2.2344-10.953 6.2109-14.895l69.301-69.004h-159.39c-11.598 0-21-9.3906-21-20.977 0-11.582 9.4023-20.977 21-20.977z" fill-rule="evenodd"/>
</svg>