<svg xmlns="http://www.w3.org/2000/svg" width="800" height="800" fill="#ffff" stroke="#ffff" viewBox="144 144 512 512"><path d="M636.16 400a64.228 64.228 0 0 1-22.672 48.961l-184.21 155.71a31.487 31.487 0 0 1-22.98 7.305 31.495 31.495 0 0 1-21.418-11.086 31.504 31.504 0 0 1 3.781-44.394l147.21-125.01h-339.76a31.491 31.491 0 0 1-27.27-47.234 31.487 31.487 0 0 1 27.27-15.742h339.76l-147.21-124.54a31.683 31.683 0 0 1-10.91-29.754 31.687 31.687 0 0 1 51.528-18.898l183.42 155.23v.003a64.23 64.23 0 0 1 23.461 49.438z"/></svg>