<svg xmlns="http://www.w3.org/2000/svg" xml:space="preserve" width="800" height="800" viewBox="0 0 342.508 342.508"><path d="M171.254 0C76.837 0 .003 76.819.003 171.248c0 94.428 76.829 171.26 171.251 171.26 94.438 0 171.251-76.826 171.251-171.26C342.505 76.819 265.697 0 171.254 0zm74.117 136.161-89.69 89.69a13.807 13.807 0 0 1-9.758 4.048 13.778 13.778 0 0 1-9.761-4.048l-39.007-39.007c-5.393-5.398-5.393-14.129 0-19.521 5.392-5.392 14.123-5.392 19.516 0l29.252 29.262 79.944-79.948c5.381-5.386 14.111-5.386 19.504 0 5.393 5.401 5.393 14.132 0 19.524z"/></svg>