<?xml version="1.0" encoding="UTF-8"?> <svg xmlns="http://www.w3.org/2000/svg" width="208" height="56" viewBox="0 0 208 56" fill="none"> <g clip-path="url(#clip0_123_222)"> <path d="M153.728 3.62V11H153.116V2.48H153.62L159.56 9.98V2.48H160.172V11H159.572L153.728 3.62ZM164.776 11.12C164.336 11.12 163.928 11.036 163.552 10.868C163.176 10.692 162.848 10.456 162.568 10.16C162.296 9.856 162.08 9.508 161.92 9.116C161.768 8.716 161.692 8.296 161.692 7.856C161.692 7.264 161.824 6.728 162.088 6.248C162.352 5.768 162.716 5.384 163.18 5.096C163.644 4.8 164.164 4.652 164.74 4.652C165.332 4.652 165.856 4.8 166.312 5.096C166.768 5.392 167.128 5.784 167.392 6.272C167.664 6.752 167.799 7.28 167.799 7.856C167.799 7.904 167.799 7.952 167.799 8C167.799 8.048 167.796 8.088 167.788 8.12H162.316C162.348 8.592 162.48 9.02 162.712 9.404C162.944 9.788 163.24 10.092 163.6 10.316C163.968 10.532 164.368 10.64 164.8 10.64C165.232 10.64 165.64 10.528 166.024 10.304C166.408 10.08 166.676 9.792 166.828 9.44L167.355 9.584C167.236 9.88 167.044 10.144 166.78 10.376C166.524 10.608 166.22 10.792 165.868 10.928C165.524 11.056 165.16 11.12 164.776 11.12ZM162.292 7.652H167.224C167.192 7.164 167.064 6.732 166.84 6.356C166.616 5.98 166.32 5.684 165.952 5.468C165.592 5.252 165.192 5.144 164.752 5.144C164.312 5.144 163.912 5.252 163.552 5.468C163.192 5.684 162.9 5.98 162.676 6.356C162.452 6.732 162.324 7.164 162.292 7.652ZM176.864 4.76H177.464L174.764 11H174.236L172.856 7.748L171.476 11H170.948L168.248 4.76H168.836L171.224 10.34L172.508 7.292L171.464 4.772H172.004L172.856 6.824L173.696 4.772H174.248L173.204 7.292L174.488 10.34L176.864 4.76ZM158.792 24.448V25H153.116V16.48H158.684V17.032H153.728V20.38H158.06V20.908H153.728V24.448H158.792ZM159.709 23.2C159.709 22.824 159.821 22.5 160.045 22.228C160.269 21.948 160.577 21.732 160.969 21.58C161.361 21.42 161.813 21.34 162.325 21.34C162.645 21.34 162.977 21.368 163.321 21.424C163.665 21.48 163.973 21.556 164.245 21.652V21.064C164.245 20.488 164.077 20.028 163.741 19.684C163.413 19.34 162.957 19.168 162.373 19.168C162.061 19.168 161.737 19.232 161.401 19.36C161.065 19.488 160.721 19.672 160.369 19.912L160.117 19.48C160.525 19.208 160.917 19.004 161.293 18.868C161.677 18.724 162.057 18.652 162.433 18.652C163.177 18.652 163.765 18.872 164.197 19.312C164.629 19.752 164.845 20.352 164.845 21.112V24.208C164.845 24.304 164.865 24.376 164.905 24.424C164.953 24.472 165.021 24.5 165.109 24.508V25C165.037 25.008 164.977 25.012 164.929 25.012C164.881 25.012 164.841 25.012 164.809 25.012C164.657 24.988 164.537 24.924 164.449 24.82C164.369 24.716 164.325 24.6 164.317 24.472V23.98C164.029 24.34 163.657 24.62 163.201 24.82C162.753 25.02 162.281 25.12 161.785 25.12C161.393 25.12 161.037 25.036 160.717 24.868C160.405 24.7 160.157 24.472 159.973 24.184C159.797 23.888 159.709 23.56 159.709 23.2ZM164.005 23.716C164.085 23.612 164.145 23.512 164.185 23.416C164.225 23.32 164.245 23.232 164.245 23.152V22.12C163.957 22.008 163.657 21.924 163.345 21.868C163.033 21.812 162.713 21.784 162.385 21.784C161.761 21.784 161.253 21.908 160.861 22.156C160.477 22.404 160.285 22.74 160.285 23.164C160.285 23.428 160.353 23.672 160.489 23.896C160.625 24.12 160.813 24.3 161.053 24.436C161.301 24.572 161.585 24.64 161.905 24.64C162.353 24.64 162.765 24.556 163.141 24.388C163.525 24.212 163.813 23.988 164.005 23.716ZM168.638 25.12C168.142 25.12 167.682 25.036 167.258 24.868C166.834 24.7 166.462 24.444 166.142 24.1L166.418 23.68C166.762 24.008 167.11 24.248 167.462 24.4C167.814 24.544 168.198 24.616 168.614 24.616C169.15 24.616 169.582 24.504 169.91 24.28C170.246 24.056 170.414 23.744 170.414 23.344C170.414 23.072 170.334 22.864 170.174 22.72C170.022 22.568 169.798 22.448 169.502 22.36C169.214 22.264 168.862 22.164 168.446 22.06C168.022 21.948 167.662 21.832 167.366 21.712C167.078 21.592 166.862 21.436 166.718 21.244C166.574 21.052 166.502 20.792 166.502 20.464C166.502 20.056 166.602 19.72 166.802 19.456C167.01 19.184 167.286 18.984 167.63 18.856C167.982 18.72 168.37 18.652 168.794 18.652C169.282 18.652 169.706 18.732 170.066 18.892C170.434 19.052 170.714 19.264 170.906 19.528L170.582 19.912C170.382 19.656 170.122 19.468 169.802 19.348C169.482 19.22 169.13 19.156 168.746 19.156C168.458 19.156 168.186 19.196 167.93 19.276C167.674 19.356 167.466 19.488 167.306 19.672C167.154 19.848 167.078 20.088 167.078 20.392C167.078 20.632 167.134 20.82 167.246 20.956C167.366 21.092 167.542 21.204 167.774 21.292C168.006 21.372 168.294 21.46 168.638 21.556C169.126 21.676 169.546 21.8 169.898 21.928C170.25 22.056 170.522 22.224 170.714 22.432C170.906 22.632 171.002 22.916 171.002 23.284C171.002 23.852 170.786 24.3 170.354 24.628C169.922 24.956 169.35 25.12 168.638 25.12ZM175.197 24.7C175.157 24.716 175.077 24.756 174.957 24.82C174.837 24.884 174.685 24.944 174.501 25C174.317 25.048 174.113 25.072 173.889 25.072C173.673 25.072 173.469 25.032 173.277 24.952C173.093 24.864 172.945 24.736 172.833 24.568C172.721 24.4 172.665 24.196 172.665 23.956V19.252H171.789V18.76H172.665V16.624H173.265V18.76H174.717V19.252H173.265V23.812C173.281 24.044 173.365 24.22 173.517 24.34C173.669 24.452 173.845 24.508 174.045 24.508C174.293 24.508 174.509 24.468 174.693 24.388C174.877 24.3 174.985 24.244 175.017 24.22L175.197 24.7ZM178.791 25.12C178.351 25.12 177.943 25.036 177.567 24.868C177.191 24.692 176.863 24.456 176.583 24.16C176.311 23.856 176.095 23.508 175.935 23.116C175.783 22.716 175.707 22.296 175.707 21.856C175.707 21.264 175.839 20.728 176.103 20.248C176.367 19.768 176.731 19.384 177.195 19.096C177.659 18.8 178.179 18.652 178.755 18.652C179.347 18.652 179.871 18.8 180.327 19.096C180.783 19.392 181.143 19.784 181.407 20.272C181.679 20.752 181.815 21.28 181.815 21.856C181.815 21.904 181.815 21.952 181.815 22C181.815 22.048 181.811 22.088 181.803 22.12H176.331C176.363 22.592 176.495 23.02 176.727 23.404C176.959 23.788 177.255 24.092 177.615 24.316C177.983 24.532 178.383 24.64 178.815 24.64C179.247 24.64 179.655 24.528 180.039 24.304C180.423 24.08 180.691 23.792 180.843 23.44L181.371 23.584C181.251 23.88 181.059 24.144 180.795 24.376C180.539 24.608 180.235 24.792 179.883 24.928C179.539 25.056 179.175 25.12 178.791 25.12ZM176.307 21.652H181.239C181.207 21.164 181.079 20.732 180.855 20.356C180.631 19.98 180.335 19.684 179.967 19.468C179.607 19.252 179.207 19.144 178.767 19.144C178.327 19.144 177.927 19.252 177.567 19.468C177.207 19.684 176.915 19.98 176.691 20.356C176.467 20.732 176.339 21.164 176.307 21.652ZM186.087 19.3C185.527 19.316 185.035 19.484 184.611 19.804C184.195 20.116 183.903 20.548 183.735 21.1V25H183.135V18.76H183.711V20.296C183.927 19.856 184.215 19.5 184.575 19.228C184.935 18.948 185.315 18.788 185.715 18.748C185.795 18.74 185.867 18.736 185.931 18.736C185.995 18.736 186.047 18.736 186.087 18.736V19.3ZM192.325 25H191.725V21.52C191.725 20.72 191.609 20.136 191.377 19.768C191.153 19.392 190.793 19.204 190.297 19.204C189.945 19.204 189.597 19.288 189.253 19.456C188.917 19.624 188.621 19.856 188.365 20.152C188.117 20.44 187.937 20.768 187.825 21.136V25H187.225V18.76H187.789V20.248C187.957 19.928 188.181 19.652 188.461 19.42C188.741 19.18 189.053 18.992 189.397 18.856C189.741 18.72 190.097 18.652 190.465 18.652C190.809 18.652 191.097 18.716 191.329 18.844C191.569 18.964 191.761 19.14 191.905 19.372C192.057 19.604 192.165 19.892 192.229 20.236C192.293 20.58 192.325 20.972 192.325 21.412V25ZM152.528 34.68C152.528 34.168 152.616 33.664 152.792 33.168C152.976 32.664 153.24 32.208 153.584 31.8C153.928 31.384 154.348 31.052 154.844 30.804C155.348 30.556 155.92 30.432 156.56 30.432C157.32 30.432 157.968 30.608 158.504 30.96C159.04 31.304 159.44 31.748 159.704 32.292L159.2 32.58C159 32.188 158.752 31.876 158.456 31.644C158.168 31.412 157.856 31.248 157.52 31.152C157.184 31.048 156.848 30.996 156.512 30.996C155.976 30.996 155.496 31.104 155.072 31.32C154.656 31.536 154.304 31.824 154.016 32.184C153.728 32.544 153.508 32.944 153.356 33.384C153.212 33.824 153.14 34.268 153.14 34.716C153.14 35.22 153.228 35.7 153.404 36.156C153.58 36.604 153.82 37.004 154.124 37.356C154.436 37.708 154.796 37.988 155.204 38.196C155.62 38.404 156.068 38.508 156.548 38.508C156.892 38.508 157.24 38.452 157.592 38.34C157.952 38.22 158.288 38.04 158.6 37.8C158.912 37.552 159.164 37.232 159.356 36.84L159.884 37.092C159.7 37.516 159.424 37.876 159.056 38.172C158.688 38.468 158.28 38.692 157.832 38.844C157.384 38.996 156.94 39.072 156.5 39.072C155.924 39.072 155.392 38.948 154.904 38.7C154.416 38.444 153.992 38.108 153.632 37.692C153.28 37.268 153.008 36.796 152.816 36.276C152.624 35.748 152.528 35.216 152.528 34.68ZM163.837 39.12C163.397 39.12 162.989 39.036 162.613 38.868C162.245 38.7 161.925 38.468 161.653 38.172C161.381 37.868 161.169 37.52 161.017 37.128C160.865 36.736 160.789 36.324 160.789 35.892C160.789 35.452 160.865 35.04 161.017 34.656C161.169 34.264 161.381 33.92 161.653 33.624C161.933 33.32 162.257 33.084 162.625 32.916C163.001 32.74 163.405 32.652 163.837 32.652C164.269 32.652 164.669 32.74 165.037 32.916C165.405 33.084 165.729 33.32 166.009 33.624C166.289 33.92 166.505 34.264 166.657 34.656C166.809 35.04 166.885 35.452 166.885 35.892C166.885 36.324 166.809 36.736 166.657 37.128C166.505 37.52 166.289 37.868 166.009 38.172C165.737 38.468 165.413 38.7 165.037 38.868C164.669 39.036 164.269 39.12 163.837 39.12ZM161.389 35.916C161.389 36.404 161.497 36.852 161.713 37.26C161.937 37.66 162.233 37.98 162.601 38.22C162.969 38.46 163.377 38.58 163.825 38.58C164.273 38.58 164.681 38.46 165.049 38.22C165.425 37.972 165.721 37.644 165.937 37.236C166.161 36.82 166.273 36.368 166.273 35.88C166.273 35.392 166.161 34.944 165.937 34.536C165.721 34.128 165.425 33.804 165.049 33.564C164.681 33.316 164.277 33.192 163.837 33.192C163.389 33.192 162.981 33.316 162.613 33.564C162.245 33.812 161.949 34.14 161.725 34.548C161.501 34.956 161.389 35.412 161.389 35.916ZM177.491 39H176.891V35.52C176.891 34.728 176.767 34.144 176.519 33.768C176.279 33.392 175.907 33.204 175.403 33.204C174.891 33.204 174.435 33.388 174.035 33.756C173.643 34.116 173.367 34.58 173.207 35.148V39H172.607V35.52C172.607 34.72 172.487 34.136 172.247 33.768C172.007 33.392 171.635 33.204 171.131 33.204C170.619 33.204 170.163 33.384 169.763 33.744C169.371 34.096 169.091 34.56 168.923 35.136V39H168.323V32.76H168.887V34.248C169.151 33.736 169.491 33.344 169.907 33.072C170.323 32.792 170.779 32.652 171.275 32.652C171.795 32.652 172.219 32.808 172.547 33.12C172.883 33.424 173.083 33.832 173.147 34.344C173.443 33.784 173.795 33.364 174.203 33.084C174.611 32.796 175.075 32.652 175.595 32.652C175.939 32.652 176.227 32.716 176.459 32.844C176.699 32.964 176.895 33.144 177.047 33.384C177.207 33.616 177.319 33.904 177.383 34.248C177.455 34.592 177.491 34.98 177.491 35.412V39ZM182.351 39.12C181.815 39.12 181.335 38.98 180.911 38.7C180.495 38.412 180.159 38.064 179.903 37.656V41.556H179.303V32.76H179.855V34.008C180.111 33.608 180.451 33.284 180.875 33.036C181.299 32.78 181.747 32.652 182.219 32.652C182.659 32.652 183.059 32.744 183.419 32.928C183.779 33.104 184.091 33.348 184.355 33.66C184.627 33.964 184.835 34.308 184.979 34.692C185.131 35.076 185.207 35.476 185.207 35.892C185.207 36.468 185.087 37.004 184.847 37.5C184.607 37.988 184.271 38.38 183.839 38.676C183.415 38.972 182.919 39.12 182.351 39.12ZM182.207 38.58C182.575 38.58 182.903 38.504 183.191 38.352C183.487 38.2 183.739 37.996 183.947 37.74C184.155 37.484 184.315 37.196 184.427 36.876C184.539 36.556 184.595 36.228 184.595 35.892C184.595 35.532 184.531 35.192 184.403 34.872C184.275 34.544 184.095 34.256 183.863 34.008C183.639 33.76 183.375 33.564 183.071 33.42C182.775 33.268 182.451 33.192 182.099 33.192C181.883 33.192 181.651 33.236 181.403 33.324C181.163 33.412 180.931 33.536 180.707 33.696C180.491 33.856 180.311 34.04 180.167 34.248C180.023 34.448 179.935 34.656 179.903 34.872V36.924C180.047 37.228 180.231 37.508 180.455 37.764C180.687 38.012 180.955 38.212 181.259 38.364C181.563 38.508 181.879 38.58 182.207 38.58ZM186.135 37.2C186.135 36.824 186.247 36.5 186.471 36.228C186.695 35.948 187.003 35.732 187.395 35.58C187.787 35.42 188.239 35.34 188.751 35.34C189.071 35.34 189.403 35.368 189.747 35.424C190.091 35.48 190.399 35.556 190.671 35.652V35.064C190.671 34.488 190.503 34.028 190.167 33.684C189.839 33.34 189.383 33.168 188.799 33.168C188.487 33.168 188.163 33.232 187.827 33.36C187.491 33.488 187.147 33.672 186.795 33.912L186.543 33.48C186.951 33.208 187.343 33.004 187.719 32.868C188.103 32.724 188.483 32.652 188.859 32.652C189.603 32.652 190.191 32.872 190.623 33.312C191.055 33.752 191.271 34.352 191.271 35.112V38.208C191.271 38.304 191.291 38.376 191.331 38.424C191.379 38.472 191.447 38.5 191.535 38.508V39C191.463 39.008 191.403 39.012 191.355 39.012C191.307 39.012 191.267 39.012 191.235 39.012C191.083 38.988 190.963 38.924 190.875 38.82C190.795 38.716 190.751 38.6 190.743 38.472V37.98C190.455 38.34 190.083 38.62 189.627 38.82C189.179 39.02 188.707 39.12 188.211 39.12C187.819 39.12 187.463 39.036 187.143 38.868C186.831 38.7 186.583 38.472 186.399 38.184C186.223 37.888 186.135 37.56 186.135 37.2ZM190.431 37.716C190.511 37.612 190.571 37.512 190.611 37.416C190.651 37.32 190.671 37.232 190.671 37.152V36.12C190.383 36.008 190.083 35.924 189.771 35.868C189.459 35.812 189.139 35.784 188.811 35.784C188.187 35.784 187.679 35.908 187.287 36.156C186.903 36.404 186.711 36.74 186.711 37.164C186.711 37.428 186.779 37.672 186.915 37.896C187.051 38.12 187.239 38.3 187.479 38.436C187.727 38.572 188.011 38.64 188.331 38.64C188.779 38.64 189.191 38.556 189.567 38.388C189.951 38.212 190.239 37.988 190.431 37.716ZM198.196 39H197.596V35.52C197.596 34.72 197.48 34.136 197.248 33.768C197.024 33.392 196.664 33.204 196.168 33.204C195.816 33.204 195.468 33.288 195.124 33.456C194.788 33.624 194.492 33.856 194.236 34.152C193.988 34.44 193.808 34.768 193.696 35.136V39H193.096V32.76H193.66V34.248C193.828 33.928 194.052 33.652 194.332 33.42C194.612 33.18 194.924 32.992 195.268 32.856C195.612 32.72 195.968 32.652 196.336 32.652C196.68 32.652 196.968 32.716 197.2 32.844C197.44 32.964 197.632 33.14 197.776 33.372C197.928 33.604 198.036 33.892 198.1 34.236C198.164 34.58 198.196 34.972 198.196 35.412V39ZM200.301 41.112C200.429 41.12 200.541 41.12 200.637 41.112C200.741 41.112 200.817 41.096 200.865 41.064C200.937 41.04 201.009 40.976 201.081 40.872C201.161 40.776 201.265 40.58 201.393 40.284C201.521 39.996 201.701 39.568 201.933 39L199.149 32.76H199.785L202.257 38.364L204.549 32.76H205.161L201.741 40.968C201.693 41.096 201.625 41.208 201.537 41.304C201.457 41.408 201.357 41.488 201.237 41.544C201.117 41.608 200.973 41.644 200.805 41.652C200.733 41.66 200.657 41.664 200.577 41.664C200.497 41.672 200.405 41.672 200.301 41.664V41.112Z" fill="white"></path> <g clip-path="url(#clip1_123_222)"> <path d="M0 54.4396L0.788889 55.6259C1.04861 55.4554 21.3764 42.0807 38.0389 36.2602C37.0926 36.0966 36.1532 35.928 35.2208 35.7543C19.1 41.87 1.01806 53.7661 0 54.4396Z" fill="white"></path> <path d="M50.6096 33.591H129.508L130 32.1664H50.6096C46.9527 32.1664 42.5541 33.1836 37.8818 34.7828C38.9078 34.9602 39.9402 35.1307 40.9791 35.2942C44.5166 34.2313 47.8096 33.591 50.6096 33.591Z" fill="white"></path> <path d="M62.1639 10.5348C62.5731 9.31989 63.375 8.71243 64.5694 8.71243H73.4C74.1111 8.71243 74.4662 9.13742 74.4653 9.98741C74.4654 10.1935 74.4349 10.3985 74.375 10.5958L68.5583 27.2162H75.1389L81.4722 9.4109C81.9194 8.09435 82.143 7.00046 82.143 6.12923C82.1412 4.04308 80.9319 3 78.5153 3H58.2055L49.7097 27.2162H56.3486L62.1639 10.5348Z" fill="white"></path> <path d="M91.8708 9.76706C91.9308 9.55957 92.0395 9.3693 92.1878 9.21195C92.336 9.05461 92.5197 8.93469 92.7235 8.8621C93.0291 8.76232 93.5458 8.71243 94.2777 8.71243H102.803C103.797 8.71243 104.295 9.10416 104.296 9.88763C104.297 10.0203 104.276 10.1523 104.235 10.2784L103.564 12.2976H91.0485L91.8708 9.76706ZM80.7263 23.8735C80.7263 26.102 82.5129 27.2162 86.086 27.2162H104.935L106.944 21.5037H89.4652C88.6532 21.5037 88.2472 21.1873 88.2472 20.5544C88.2623 20.2177 88.3346 19.8859 88.461 19.5733L88.9791 18.01H108.162L111.329 9.0977C111.739 7.92435 111.944 6.94272 111.944 6.15279C111.944 4.05093 110.663 3 108.101 3H90.2277C88.5018 3 87.4152 3.62779 86.968 4.88336L81.3958 20.9868C80.9504 22.2803 80.7272 23.2425 80.7263 23.8735Z" fill="white"></path> <path d="M119.363 21.5037C118.344 21.5037 117.835 21.1896 117.835 20.5614C117.835 20.4797 117.845 20.3983 117.864 20.3188C120.342 13.2686 121.55 9.85529 121.489 10.0789C121.794 9.16699 122.616 8.71151 123.956 8.71243H138.042L140 3H119.819C118.133 3 116.976 3.90126 116.347 5.70377L110.622 22.0567C110.41 22.6419 110.296 23.2582 110.286 23.8805C110.286 24.9549 110.677 25.7804 111.46 26.357C112.242 26.9335 113.242 27.2222 114.458 27.2231H131.694L133.653 21.5107L119.363 21.5037Z" fill="white"></path> <path d="M59.5209 36.9101C53.557 36.9101 47.182 36.2629 40.9792 35.2942C39.9412 35.1326 38.9088 34.9621 37.882 34.7829C20.8153 31.8116 5.85557 26.7699 5.64446 26.6979L5.18335 28.0463C5.38613 28.1142 19.0556 32.7221 35.2208 35.7474C36.1533 35.922 37.0926 36.0902 38.0389 36.2519C45.1472 37.4742 52.6028 38.3306 59.5209 38.3306H127.882L128.369 36.906L59.5209 36.9101Z" fill="white"></path> </g> </g> <defs> <clipPath id="clip0_123_222"> <rect width="208" height="55.6259" fill="white"></rect> </clipPath> <clipPath id="clip1_123_222"> <rect width="140" height="52.6259" fill="white" transform="translate(0 3)"></rect> </clipPath> </defs> </svg> 