<?xml version="1.0" encoding="UTF-8"?> <svg xmlns="http://www.w3.org/2000/svg" id="_Слой_2" data-name="Слой 2" viewBox="0 0 1008 379.74"> <defs> <style> .cls-1 { fill: #0099d4; } .cls-2 { fill: #0053a1; } </style> </defs> <g id="_Слой_1-2" data-name="Слой 1"> <g> <path class="cls-1" d="M0,371.18l5.68,8.56c1.87-1.24,148.23-97.76,268.2-139.8-6.81-1.17-13.59-2.39-20.29-3.65C137.52,280.48,7.33,366.32,0,371.18"></path> <path class="cls-1" d="M364.39,220.74H932.46l3.52-10.27H364.39c-26.33,0-58.04,7.34-91.64,18.88,7.39,1.28,14.82,2.52,22.3,3.69,25.47-7.67,49.18-12.3,69.34-12.3"></path> <path class="cls-2" d="M447.58,54.37c2.92-8.77,8.69-13.15,17.32-13.15h63.58c5.12,0,7.67,3.06,7.67,9.21,0,1.46-.21,2.92-.66,4.38l-41.87,119.93h47.35l45.61-128.48c3.21-9.5,4.82-17.39,4.82-23.68,0-15.05-8.7-22.58-26.09-22.58h-146.23l-61.17,174.74h47.79l41.88-120.36Z"></path> <path class="cls-2" d="M661.47,48.83c1.02-3.18,3.07-5.37,6.14-6.52,2.19-.72,5.92-1.08,11.18-1.08h61.39c7.16,0,10.74,2.82,10.74,8.48,0,1.01-.15,1.95-.44,2.82l-4.82,14.57h-90.11l5.92-18.26Zm-80.24,101.79c0,16.08,12.86,24.12,38.59,24.12h135.71l14.47-41.22h-125.85c-5.85,0-8.77-2.28-8.77-6.85,0-1.92,.52-4.27,1.54-7.08l3.73-11.28h138.13l22.8-64.33c2.92-8.46,4.39-15.53,4.39-21.22C805.96,7.59,796.75,0,778.33,0h-128.69c-12.43,0-20.25,4.53-23.46,13.59l-40.12,116.2c-3.21,9.36-4.82,16.3-4.82,20.83"></path> <path class="cls-2" d="M859.41,133.52c-7.31,0-10.96-2.26-10.96-6.8,0-.58,.07-1.16,.22-1.75,17.83-50.86,26.53-75.49,26.09-73.89,2.19-6.58,8.12-9.86,17.76-9.86h101.38L1008,0h-145.3c-12.14,0-20.46,6.5-24.99,19.51l-41.22,117.95c-1.6,4.68-2.41,9.07-2.41,13.15,0,7.75,2.82,13.71,8.44,17.87,5.62,4.17,12.82,6.25,21.6,6.25h124.09l14.1-41.22h-102.89Z"></path> <path class="cls-2" d="M428.55,244.69c-42.94,0-88.84-4.68-133.5-11.66-7.47-1.17-14.91-2.41-22.3-3.69-122.88-21.44-230.59-57.83-232.11-58.34l-3.32,9.73c1.46,.5,99.87,33.74,216.27,55.57,6.7,1.26,13.48,2.47,20.29,3.65,51.18,8.82,104.86,15.03,154.67,15.03h492.2l3.51-10.28H428.55Z"></path> </g> </g> </svg> 